<?xml version="1.0" encoding="UTF-8" standalone="no"?>
<!-- Generator: Adobe Illustrator 16.0.0, SVG Export Plug-In . SVG Version: 6.00 Build 0)  -->

<svg
   xmlns:dc="http://purl.org/dc/elements/1.1/"
   xmlns:cc="http://creativecommons.org/ns#"
   xmlns:rdf="http://www.w3.org/1999/02/22-rdf-syntax-ns#"
   xmlns:svg="http://www.w3.org/2000/svg"
   xmlns="http://www.w3.org/2000/svg"
   xmlns:sodipodi="http://sodipodi.sourceforge.net/DTD/sodipodi-0.dtd"
   xmlns:inkscape="http://www.inkscape.org/namespaces/inkscape"
   version="1.1"
   x="0px"
   y="0px"
   width="25"
   height="25"
   viewBox="0 0 24.999999 24.999999"
   xml:space="preserve"
   id="svg3076"
   inkscape:version="0.48.5 r10040"
   sodipodi:docname="expand.svg"><metadata
   id="metadata3092"><rdf:RDF><cc:Work
       rdf:about=""><dc:format>image/svg+xml</dc:format><dc:type
         rdf:resource="http://purl.org/dc/dcmitype/StillImage" /><dc:title></dc:title></cc:Work></rdf:RDF></metadata><defs
   id="defs3090" /><sodipodi:namedview
   pagecolor="#ffffff"
   bordercolor="#666666"
   borderopacity="1"
   objecttolerance="10"
   gridtolerance="10"
   guidetolerance="10"
   inkscape:pageopacity="0"
   inkscape:pageshadow="2"
   inkscape:window-width="949"
   inkscape:window-height="786"
   id="namedview3088"
   showgrid="true"
   inkscape:zoom="17.636555"
   inkscape:cx="14.18"
   inkscape:cy="13.7215"
   inkscape:window-x="563"
   inkscape:window-y="0"
   inkscape:window-maximized="0"
   inkscape:current-layer="svg3076"
   showguides="false"
   inkscape:snap-global="false"><inkscape:grid
     type="xygrid"
     id="grid3090"
     empspacing="5"
     visible="true"
     enabled="true"
     snapvisiblegridlinesonly="true" /></sodipodi:namedview>
<g
   id="c115_arrows"
   style="fill:#214478"
   transform="matrix(0.80470284,0,0,0.84147735,1.0956801,0.93731326)">
	<path
   style="fill:#214478"
   d="m 28.36,19.136 c 0,-0.868 -0.665,-1.57 -1.491,-1.57 -0.819,0.002 -1.492,0.702 -1.492,1.57 v 3.25 l -6.018,-6.021 c -0.582,-0.583 -1.524,-0.583 -2.106,0 -0.582,0.582 -0.582,1.527 0,2.109 l 5.989,5.987 h -3.235 c -0.881,0.002 -1.591,0.669 -1.591,1.491 0,0.824 0.71,1.49 1.591,1.49 h 6.761 c 0.881,0 1.59,-0.665 1.593,-1.49 -0.003,-0.022 -0.006,-0.039 -0.009,-0.061 0.003,-0.028 0.009,-0.058 0.009,-0.087 v -6.668 z"
   id="path3079"
   inkscape:connector-curvature="0" />
	<path
   style="fill:#214478"
   d="m 9,16.365 -6.015,6.021 v -3.25 c 0,-0.868 -0.672,-1.568 -1.493,-1.57 -0.824,0 -1.49,0.702 -1.49,1.57 L 0,25.806 c 0,0.029 0.008,0.059 0.01,0.087 -0.002,0.021 -0.006,0.038 -0.008,0.061 0.002,0.825 0.712,1.49 1.592,1.49 h 6.762 c 0.879,0 1.59,-0.666 1.59,-1.49 0,-0.822 -0.711,-1.489 -1.59,-1.491 H 5.121 l 5.989,-5.987 c 0.58,-0.582 0.58,-1.527 0,-2.109 C 10.527,15.782 9.584,15.782 9,16.365 z"
   id="path3081"
   inkscape:connector-curvature="0" />
	<path
   style="fill:#214478"
   d="m 19.359,11.076 6.018,-6.017 v 3.25 c 0,0.865 0.673,1.565 1.492,1.568 0.826,0 1.491,-0.703 1.491,-1.568 V 1.638 C 28.36,1.609 28.354,1.579 28.351,1.553 28.354,1.532 28.357,1.512 28.36,1.491 28.357,0.665 27.648,0 26.768,0 h -6.761 c -0.881,0 -1.591,0.665 -1.591,1.491 0,0.821 0.71,1.49 1.591,1.492 h 3.235 L 17.253,8.97 c -0.582,0.581 -0.582,1.524 0,2.105 0.582,0.586 1.524,0.586 2.106,0.001 z"
   id="path3083"
   inkscape:connector-curvature="0" />
	<path
   style="fill:#214478"
   d="M 5.121,2.983 H 8.355 C 9.234,2.981 9.945,2.312 9.945,1.491 9.945,0.665 9.234,0 8.355,0 H 1.594 C 0.714,0 0.004,0.665 0.002,1.491 0.004,1.512 0.008,1.532 0.01,1.553 0.008,1.579 0,1.608 0,1.638 L 0.002,8.31 c 0,0.865 0.666,1.568 1.49,1.568 C 2.313,9.875 2.985,9.175 2.985,8.31 V 5.06 L 9,11.076 c 0.584,0.585 1.527,0.585 2.11,0 0.58,-0.581 0.58,-1.524 0,-2.105 L 5.121,2.983 z"
   id="path3085"
   inkscape:connector-curvature="0" />
</g>
<g
   id="Capa_1"
   transform="translate(0,-2.4430007)">
</g>
</svg>