<?xml version="1.0" encoding="UTF-8" standalone="no"?>
<svg
   xmlns:dc="http://purl.org/dc/elements/1.1/"
   xmlns:cc="http://creativecommons.org/ns#"
   xmlns:rdf="http://www.w3.org/1999/02/22-rdf-syntax-ns#"
   xmlns:svg="http://www.w3.org/2000/svg"
   xmlns="http://www.w3.org/2000/svg"
   xmlns:sodipodi="http://sodipodi.sourceforge.net/DTD/sodipodi-0.dtd"
   xmlns:inkscape="http://www.inkscape.org/namespaces/inkscape"
   version="1.1"
   viewBox="0 0 512 512"
   enable-background="new 0 0 512 512"
   width="512px"
   height="512px"
   id="svg2"
   inkscape:version="0.91pre2 r13516"
   sodipodi:docname="ExtTooltip_Point.svg">
  <metadata
     id="metadata26">
    <rdf:RDF>
      <cc:Work
         rdf:about="">
        <dc:format>image/svg+xml</dc:format>
        <dc:type
           rdf:resource="http://purl.org/dc/dcmitype/StillImage" />
        <dc:title />
      </cc:Work>
    </rdf:RDF>
  </metadata>
  <defs
     id="defs24" />
  <sodipodi:namedview
     pagecolor="#ffffff"
     bordercolor="#666666"
     borderopacity="1"
     objecttolerance="10"
     gridtolerance="10"
     guidetolerance="10"
     inkscape:pageopacity="0"
     inkscape:pageshadow="2"
     inkscape:window-width="1383"
     inkscape:window-height="781"
     id="namedview22"
     showgrid="true"
     inkscape:zoom="1.05"
     inkscape:cx="113.37774"
     inkscape:cy="256"
     inkscape:window-x="0"
     inkscape:window-y="0"
     inkscape:window-maximized="0"
     inkscape:current-layer="svg2">
    <inkscape:grid
       type="xygrid"
       id="grid4181" />
  </sodipodi:namedview>
  <g
     id="g4"
     transform="matrix(0.85831892,0,0,0.84058349,2.2703559,2.8044287)" />
  <g
     style="fill:#0097ba;fill-opacity:1"
     id="g10"
     transform="matrix(0.85831892,0,0,0.84058349,36.270357,9.5834615)">
    <path
       d="m 363.2,166.7 -214.4,0 c -11.3,0 -20.4,-9.1 -20.4,-20.4 0,-11.3 9.1,-20.4 20.4,-20.4 l 214.4,0 c 11.3,0 20.4,9.1 20.4,20.4 0,11.3 -9.1,20.4 -20.4,20.4 z"
       id="path12"
       inkscape:connector-curvature="0"
       style="fill:#0097ba;fill-opacity:1" />
  </g>
  <g
     style="fill:#0097ba;fill-opacity:1"
     id="g14"
     transform="matrix(0.85831892,0,0,0.84058349,36.270357,9.5834615)">
    <path
       d="m 363.2,273.2 -214.4,0 c -11.3,0 -20.4,-9.1 -20.4,-20.4 0,-11.3 9.1,-20.4 20.4,-20.4 l 214.4,0 c 11.3,0 20.4,9.1 20.4,20.4 0,11.3 -9.1,20.4 -20.4,20.4 z"
       id="path16"
       inkscape:connector-curvature="0"
       style="fill:#0097ba;fill-opacity:1" />
  </g>
  <g
     transform="matrix(0.85831892,0,0,0.84058349,36.270357,9.5834615)"
     id="g18"
     style="fill:#0097ba;fill-opacity:1">
    <path
       style="fill:#0097ba;fill-opacity:1"
       inkscape:connector-curvature="0"
       id="path20"
       d="M 91.6,498.4 C 84.3,494.3 80.2,486.2 81.3,477.9 l 12.1,-89.8 -32.5,0 C 33.4,388.1 11,365.7 11,338.3 L 11,60.9 C 11,33.4 33.4,11 60.9,11 l 390.3,0 c 27.5,0 49.8,22.4 49.8,49.9 l 0,277.4 c 0,27.5 -22.4,49.8 -49.8,49.8 l -203.8,0 -132.9,108.3 c -9.7,7.6 -19.8,3.7 -22.9,2 z M 60.9,51.8 c -5,0 -9,4 -9,9 l 0,277.4 c 0,5 4,9 9,9 l 56,0 c 16.5,0.6 21.9,15.8 20.2,23.1 l -8.3,61.7 98.5,-80.3 c 3.6,-3 8.2,-4.6 12.9,-4.6 l 211,0 c 5,0 9,-4 9,-9 l 0,-277.2 c 0,-5 -4,-9 -9,-9 l -390.3,0 z" />
  </g>
  <ellipse
     style="fill:#0097ba;fill-opacity:1;stroke:#1c1c24;stroke-width:0.44335273;stroke-linecap:round;stroke-miterlimit:0.5;stroke-dasharray:0.44335274, 0.88670549;stroke-dashoffset:0;stroke-opacity:1"
     id="path3355"
     cx="323.01025"
     cy="428.99677"
     rx="37.16539"
     ry="37.985405" />
  <g
     id="g4164"
     transform="translate(15.28145,3.0476191)"
     style="stroke-width:20;stroke-miterlimit:0.5;stroke-dasharray:none">
    <path
       inkscape:connector-curvature="0"
       id="path3356"
       d="m 307.72881,340.94915 0,160 0,0"
       style="fill:#0000ff;fill-rule:evenodd;stroke:#0097ba;stroke-width:20;stroke-linecap:butt;stroke-linejoin:miter;stroke-miterlimit:0.5;stroke-dasharray:none;stroke-opacity:1" />
    <path
       style="fill:#0000ff;fill-rule:evenodd;stroke:#0097ba;stroke-width:20;stroke-linecap:butt;stroke-linejoin:miter;stroke-miterlimit:0.5;stroke-dasharray:none;stroke-opacity:1"
       d="m 227.72881,424.69915 160,0 0,0"
       id="path4162"
       inkscape:connector-curvature="0" />
  </g>
</svg>
