<?xml version="1.0" encoding="UTF-8" standalone="no"?>
<!-- Generator: Adobe Illustrator 18.0.0, SVG Export Plug-In . SVG Version: 6.00 Build 0)  -->

<svg
   xmlns:dc="http://purl.org/dc/elements/1.1/"
   xmlns:cc="http://creativecommons.org/ns#"
   xmlns:rdf="http://www.w3.org/1999/02/22-rdf-syntax-ns#"
   xmlns:svg="http://www.w3.org/2000/svg"
   xmlns="http://www.w3.org/2000/svg"
   xmlns:sodipodi="http://sodipodi.sourceforge.net/DTD/sodipodi-0.dtd"
   xmlns:inkscape="http://www.inkscape.org/namespaces/inkscape"
   version="1.1"
   id="Capa_1"
   x="0px"
   y="0px"
   viewBox="0 0 494.572 494.572"
   style="enable-background:new 0 0 494.572 494.572;"
   xml:space="preserve"
   width="512px"
   height="512px"
   inkscape:version="0.91pre2 r13516"
   sodipodi:docname="interface-point.svg"><metadata
     id="metadata38"><rdf:RDF><cc:Work
         rdf:about=""><dc:format>image/svg+xml</dc:format><dc:type
           rdf:resource="http://purl.org/dc/dcmitype/StillImage" /><dc:title></dc:title></cc:Work></rdf:RDF></metadata><defs
     id="defs36" /><sodipodi:namedview
     pagecolor="#ffffff"
     bordercolor="#666666"
     borderopacity="1"
     objecttolerance="10"
     gridtolerance="10"
     guidetolerance="10"
     inkscape:pageopacity="0"
     inkscape:pageshadow="2"
     inkscape:window-width="951"
     inkscape:window-height="608"
     id="namedview34"
     showgrid="false"
     inkscape:zoom="0.4609375"
     inkscape:cx="256"
     inkscape:cy="256"
     inkscape:window-x="0"
     inkscape:window-y="0"
     inkscape:window-maximized="0"
     inkscape:current-layer="Capa_1" /><path
     id="XMLID_140_"
     d="M257.063,0C127.136,0,21.808,105.33,21.808,235.266c0,41.012,10.535,79.541,28.973,113.104L3.825,464.586  c-3.285,8.118-1.391,17.402,4.799,23.593c6.176,6.19,15.47,8.085,23.586,4.802l118.707-47.953  c31.933,16.186,67.912,25.504,106.146,25.504c129.945,0,235.275-105.33,235.275-235.266S387.009,0,257.063,0z M256.804,94.852  c22.865,0,41.403,18.538,41.403,41.404s-18.538,41.403-41.403,41.403c-22.865,0-41.406-18.537-41.406-41.403  S233.938,94.852,256.804,94.852z M298.616,356.496c0,10.6-8.592,19.191-19.191,19.191h-45.243c-10.6,0-19.19-8.591-19.19-19.191  V198.312c11.939,8.077,26.345,12.797,41.813,12.797c15.467,0,29.872-4.721,41.813-12.797V356.496z"
     fill="#0097ba" /><g
     id="g4" /><g
     id="g6" /><g
     id="g8" /><g
     id="g10" /><g
     id="g12" /><g
     id="g14" /><g
     id="g16" /><g
     id="g18" /><g
     id="g20" /><g
     id="g22" /><g
     id="g24" /><g
     id="g26" /><g
     id="g28" /><g
     id="g30" /><g
     id="g32" /><text
     xml:space="preserve"
     style="font-style:normal;font-weight:normal;font-size:174.44067383px;line-height:125%;font-family:Sans;letter-spacing:0px;word-spacing:0px;fill:#000000;fill-opacity:1;stroke:none;stroke-width:1px;stroke-linecap:butt;stroke-linejoin:miter;stroke-opacity:1"
     x="28.22237"
     y="487.46786"
     id="text3367"
     sodipodi:linespacing="125%"
     transform="scale(1.0110609,0.9890601)"><tspan
       sodipodi:role="line"
       id="tspan3369"
       x="28.22237"
       y="487.46786">Point</tspan></text>
</svg>