<?xml version="1.0" encoding="UTF-8" standalone="no"?>
<!-- Generator: Adobe Illustrator 16.0.0, SVG Export Plug-In . SVG Version: 6.00 Build 0)  -->

<svg
   xmlns:dc="http://purl.org/dc/elements/1.1/"
   xmlns:cc="http://creativecommons.org/ns#"
   xmlns:rdf="http://www.w3.org/1999/02/22-rdf-syntax-ns#"
   xmlns:svg="http://www.w3.org/2000/svg"
   xmlns="http://www.w3.org/2000/svg"
   xmlns:sodipodi="http://sodipodi.sourceforge.net/DTD/sodipodi-0.dtd"
   xmlns:inkscape="http://www.inkscape.org/namespaces/inkscape"
   version="1.1"
   id="Layer_3"
   x="0px"
   y="0px"
   width="25"
   height="25"
   viewBox="0 0 25 25"
   enable-background="new 0 0 100 100"
   xml:space="preserve"
   inkscape:version="0.48.5 r10040"
   sodipodi:docname="map-25.svg"><metadata
   id="metadata4618"><rdf:RDF><cc:Work
       rdf:about=""><dc:format>image/svg+xml</dc:format><dc:type
         rdf:resource="http://purl.org/dc/dcmitype/StillImage" /><dc:title></dc:title></cc:Work></rdf:RDF></metadata><defs
   id="defs4616" /><sodipodi:namedview
   pagecolor="#ffffff"
   bordercolor="#666666"
   borderopacity="1"
   objecttolerance="10"
   gridtolerance="10"
   guidetolerance="10"
   inkscape:pageopacity="0"
   inkscape:pageshadow="2"
   inkscape:window-width="1238"
   inkscape:window-height="671"
   id="namedview4614"
   showgrid="true"
   inkscape:zoom="17.48"
   inkscape:cx="12.5"
   inkscape:cy="12.5"
   inkscape:window-x="0"
   inkscape:window-y="0"
   inkscape:window-maximized="0"
   inkscape:current-layer="Layer_3"><inkscape:grid
     type="xygrid"
     id="grid4620"
     empspacing="5"
     visible="true"
     enabled="true"
     snapvisiblegridlinesonly="true" /></sodipodi:namedview>
<g
   id="g4608"
   transform="matrix(0.23406166,0,0,0.23213764,0.84537381,1.0050091)"
   style="fill:#214478">
	<path
   d="M 95.131,53.803 99.36,20.472 68.055,8.594 33.03,25.321 0.318,11.507 4.933,47.872 0.685,83.927 35.16,90.393 68.226,84.094 99.595,91.334 95.131,53.803 z M 35.155,86.672 4.719,80.964 8.64,48.03 4.746,17.344 33.124,29.329 68.22,12.565 95.371,22.868 91.446,53.787 95.353,86.6 68.296,80.358 35.155,86.672 z"
   id="path4610"
   inkscape:connector-curvature="0"
   style="fill:#214478" />
	<path
   d="m 83.922,67.313 c -0.911,0 -1.752,0.263 -2.487,0.688 -2.896,-2.12 -5.879,-4.61 -6.026,-7.887 -0.2,-4.493 2.551,-8.794 -0.598,-12.917 -3.077,-4.028 -10.954,-1.312 -13.999,-4.339 0.474,-0.763 0.759,-1.654 0.759,-2.618 0,-2.754 -2.234,-4.988 -4.987,-4.988 -2.757,0 -4.989,2.233 -4.989,4.988 0,1.58 0.749,2.971 1.895,3.885 -0.48,1.216 -0.782,2.506 -0.834,3.823 -0.082,2.081 0.515,4.151 0.064,6.218 -0.372,1.717 -2.788,1.607 -4.09,1.617 -3.284,0.03 -7.964,-0.589 -10.082,1.729 -0.625,-0.47 -1.356,-0.795 -2.161,-0.929 -0.474,-4.271 0.347,-8.443 -3.44,-11.728 -2.435,-2.114 -6.418,-3.031 -8.664,-5.406 0.475,-0.763 0.762,-1.657 0.762,-2.622 0,-2.755 -2.233,-4.989 -4.988,-4.989 -2.754,0 -4.988,2.233 -4.988,4.989 0,2.754 2.233,4.987 4.988,4.987 0.919,0 1.769,-0.265 2.508,-0.699 1.66,1.666 3.951,2.773 6.095,3.893 2.731,1.425 4.766,3.254 5.14,6.49 0.205,1.774 0.126,3.518 0.241,5.263 -2.005,0.647 -3.466,2.505 -3.466,4.726 0,2.755 2.233,4.988 4.989,4.988 2.754,0 4.988,-2.233 4.988,-4.988 0,-0.652 -0.134,-1.273 -0.362,-1.845 1.656,-2.984 9.263,-0.948 12.131,-1.908 2.089,-0.7 2.83,-2.657 3.015,-4.686 0.175,-1.896 -0.436,-3.76 -0.151,-5.664 0.114,-0.775 0.309,-1.524 0.569,-2.239 0.271,0.045 0.546,0.083 0.83,0.083 0.877,0 1.688,-0.246 2.405,-0.645 3.086,3.092 9.214,1.02 13.106,3.349 4.629,2.768 -0.131,10.582 1.33,14.755 1.012,2.887 3.656,5.039 6.277,6.978 -0.479,0.767 -0.77,1.666 -0.77,2.636 0,2.756 2.232,4.988 4.989,4.988 2.753,0 4.988,-2.232 4.988,-4.988 10e-4,-2.753 -2.234,-4.988 -4.987,-4.988 z"
   id="path4612"
   inkscape:connector-curvature="0"
   style="fill:#214478" />
</g>
</svg>