<?xml version="1.0" encoding="UTF-8" standalone="no"?>
<!-- Generator: Adobe Illustrator 18.1.1, SVG Export Plug-In . SVG Version: 6.00 Build 0)  -->

<svg
   xmlns:dc="http://purl.org/dc/elements/1.1/"
   xmlns:cc="http://creativecommons.org/ns#"
   xmlns:rdf="http://www.w3.org/1999/02/22-rdf-syntax-ns#"
   xmlns:svg="http://www.w3.org/2000/svg"
   xmlns="http://www.w3.org/2000/svg"
   xmlns:sodipodi="http://sodipodi.sourceforge.net/DTD/sodipodi-0.dtd"
   xmlns:inkscape="http://www.inkscape.org/namespaces/inkscape"
   version="1.1"
   id="Capa_1"
   x="0px"
   y="0px"
   viewBox="0 0 25.922 25.922"
   style="enable-background:new 0 0 25.922 25.922;"
   xml:space="preserve"
   inkscape:version="0.91pre2 r13516"
   sodipodi:docname="palm18.svg"><metadata
     id="metadata41"><rdf:RDF><cc:Work
         rdf:about=""><dc:format>image/svg+xml</dc:format><dc:type
           rdf:resource="http://purl.org/dc/dcmitype/StillImage" /></cc:Work></rdf:RDF></metadata><defs
     id="defs39" /><sodipodi:namedview
     pagecolor="#ffffff"
     bordercolor="#666666"
     borderopacity="1"
     objecttolerance="10"
     gridtolerance="10"
     guidetolerance="10"
     inkscape:pageopacity="0"
     inkscape:pageshadow="2"
     inkscape:window-width="706"
     inkscape:window-height="482"
     id="namedview37"
     showgrid="false"
     inkscape:zoom="9.1042355"
     inkscape:cx="12.961"
     inkscape:cy="12.961"
     inkscape:window-x="0"
     inkscape:window-y="0"
     inkscape:window-maximized="0"
     inkscape:current-layer="Capa_1" /><g
     id="g3"><path
       style="fill:#0000ff"
       d="m 3.308,16.35 c 1.46,-0.876 2.288,0.117 3.883,0.861 1.371,0.64 2.899,0.65 3.033,-0.153 0.216,-1.297 0.169,-1.916 0.169,-3.679 0,-1.401 -0.442,-4.576 -0.791,-6.975 -0.42,-2.887 -0.566,-4.577 0.851,-4.71 1.36,-0.128 1.428,0.639 1.945,4.56 0.396,3.006 1.023,5.121 1.336,5.059 C 14.047,11.251 13.582,8.527 13.468,5.75 13.265,0.781 13.531,0 14.781,0 c 1.077,0 1.312,0.703 1.452,5.75 0.073,2.625 0.359,5.358 0.581,5.358 0.334,0 0.599,-2.563 0.548,-5.341 -0.097,-5.194 0.817,-4.802 1.367,-4.802 0.542,0 1.489,0.153 1.459,5.106 -0.019,2.896 0,5.396 0.547,5.396 0.244,0 0.638,-2.334 0.638,-4.606 0,-3.8 0.729,-3.8 1.308,-3.8 0.577,0 0.881,0.7 0.911,4.499 0.025,3.028 -0.327,7.291 -0.327,9.875 0,6.289 -2.041,6.355 -2.041,8.487 l -8.541,0 C 12.432,25.318 11.851,24.964 10.452,23.535 9.041,22.094 5.846,19.337 3.327,18.795 1.641,18.433 2.407,16.891 3.308,16.35 Z"
       id="path5"
       inkscape:connector-curvature="0" /></g><g
     id="g7" /><g
     id="g9" /><g
     id="g11" /><g
     id="g13" /><g
     id="g15" /><g
     id="g17" /><g
     id="g19" /><g
     id="g21" /><g
     id="g23" /><g
     id="g25" /><g
     id="g27" /><g
     id="g29" /><g
     id="g31" /><g
     id="g33" /><g
     id="g35" /></svg>