<?xml version="1.0" encoding="UTF-8" standalone="no"?>
<!-- Created with Inkscape (http://www.inkscape.org/) -->

<svg
   xmlns:dc="http://purl.org/dc/elements/1.1/"
   xmlns:cc="http://creativecommons.org/ns#"
   xmlns:rdf="http://www.w3.org/1999/02/22-rdf-syntax-ns#"
   xmlns:svg="http://www.w3.org/2000/svg"
   xmlns="http://www.w3.org/2000/svg"
   xmlns:sodipodi="http://sodipodi.sourceforge.net/DTD/sodipodi-0.dtd"
   xmlns:inkscape="http://www.inkscape.org/namespaces/inkscape"
   width="26"
   height="26"
   id="svg2"
   version="1.1"
   inkscape:version="0.48.1 "
   sodipodi:docname="pointcollection.svg">
  <defs
     id="defs4">
    <inkscape:perspective
       sodipodi:type="inkscape:persp3d"
       inkscape:vp_x="15.115328 : 195.03454 : 1"
       inkscape:vp_y="0 : 772.67464 : 0"
       inkscape:vp_z="99.686254 : 195.03454 : 1"
       inkscape:persp3d-origin="57.400791 : 59.512272 : 1"
       id="perspective10" />
    <inkscape:perspective
       id="perspective2830"
       inkscape:persp3d-origin="0.5 : 0.33333333 : 1"
       inkscape:vp_z="1 : 0.5 : 1"
       inkscape:vp_y="0 : 1000 : 0"
       inkscape:vp_x="0 : 0.5 : 1"
       sodipodi:type="inkscape:persp3d" />
    <inkscape:perspective
       id="perspective3635"
       inkscape:persp3d-origin="0.5 : 0.33333333 : 1"
       inkscape:vp_z="1 : 0.5 : 1"
       inkscape:vp_y="0 : 1000 : 0"
       inkscape:vp_x="0 : 0.5 : 1"
       sodipodi:type="inkscape:persp3d" />
    <inkscape:perspective
       id="perspective3780"
       inkscape:persp3d-origin="0.5 : 0.33333333 : 1"
       inkscape:vp_z="1 : 0.5 : 1"
       inkscape:vp_y="0 : 1000 : 0"
       inkscape:vp_x="0 : 0.5 : 1"
       sodipodi:type="inkscape:persp3d" />
  </defs>
  <sodipodi:namedview
     id="base"
     pagecolor="#ffffff"
     bordercolor="#666666"
     borderopacity="1.0"
     inkscape:pageopacity="0.0"
     inkscape:pageshadow="2"
     inkscape:zoom="19.373"
     inkscape:cx="13.030193"
     inkscape:cy="11.68063"
     inkscape:document-units="px"
     inkscape:current-layer="layer1"
     showgrid="false"
     inkscape:window-width="1920"
     inkscape:window-height="1018"
     inkscape:window-x="-8"
     inkscape:window-y="-8"
     inkscape:window-maximized="1" />
  <metadata
     id="metadata7">
    <rdf:RDF>
      <cc:Work
         rdf:about="">
        <dc:format>image/svg+xml</dc:format>
        <dc:type
           rdf:resource="http://purl.org/dc/dcmitype/StillImage" />
        <dc:title />
      </cc:Work>
    </rdf:RDF>
  </metadata>
  <g
     inkscape:label="Ebene 1"
     inkscape:groupmode="layer"
     id="layer1"
     transform="translate(0,-1026.3622)">
    <path
       style="fill:#000000;fill-opacity:1;stroke:#000000;stroke-width:0;stroke-miterlimit:4;stroke-opacity:1;stroke-dasharray:none"
       d="m 7.9377807,1041.014 0,2.0625 c -0.519466,0.1374 -0.9251605,0.5431 -1.0625,1.0625 l -2.0625,0 0,0.75 2.0625,0 c 0.1373395,0.5195 0.543034,0.9252 1.0625,1.0625 l 0,2.0625 0.75,0 0,-2.0625 c 0.519466,-0.1373 0.925161,-0.543 1.0625,-1.0625 l 2.0625003,0 0,-0.75 -2.0625003,0 c -0.137339,-0.5194 -0.543034,-0.9251 -1.0625,-1.0625 l 0,-2.0625 -0.75,0 z"
       id="path2844"
       inkscape:connector-curvature="0" />
    <path
       style="fill:#000000;fill-opacity:1;stroke:#000000;stroke-width:0;stroke-miterlimit:4;stroke-opacity:1;stroke-dasharray:none"
       d="m 18.155944,1036.0092 0,2.0625 c -0.519466,0.1374 -0.92516,0.5431 -1.0625,1.0625 l -2.0625,0 0,0.75 2.0625,0 c 0.13734,0.5195 0.543034,0.9252 1.0625,1.0625 l 0,2.0625 0.75,0 0,-2.0625 c 0.519466,-0.1373 0.925161,-0.543 1.0625,-1.0625 l 2.062501,0 0,-0.75 -2.062501,0 c -0.137339,-0.5194 -0.543034,-0.9251 -1.0625,-1.0625 l 0,-2.0625 -0.75,0 z"
       id="path2844-1"
       inkscape:connector-curvature="0" />
    <path
       style="fill:#000000;fill-opacity:1;stroke:#000000;stroke-width:0;stroke-miterlimit:4;stroke-opacity:1;stroke-dasharray:none"
       d="m 10.464828,1029.6602 0,2.0625 c -0.5194655,0.1374 -0.9251605,0.5431 -1.0624995,1.0625 l -2.0625,0 0,0.75 2.0625,0 c 0.137339,0.5195 0.543034,0.9252 1.0624995,1.0625 l 0,2.0625 0.750001,0 0,-2.0625 c 0.519466,-0.1373 0.925161,-0.543 1.0625,-1.0625 l 2.0625,0 0,-0.75 -2.0625,0 c -0.137339,-0.5194 -0.543034,-0.9251 -1.0625,-1.0625 l 0,-2.0625 -0.750001,0 z"
       id="path2844-7"
       inkscape:connector-curvature="0" />
  </g>
</svg>
