<?xml version="1.0" encoding="UTF-8" standalone="no"?>
<!-- Generator: Adobe Illustrator 15.1.0, SVG Export Plug-In . SVG Version: 6.00 Build 0)  -->

<svg
   xmlns:dc="http://purl.org/dc/elements/1.1/"
   xmlns:cc="http://creativecommons.org/ns#"
   xmlns:rdf="http://www.w3.org/1999/02/22-rdf-syntax-ns#"
   xmlns:svg="http://www.w3.org/2000/svg"
   xmlns="http://www.w3.org/2000/svg"
   xmlns:sodipodi="http://sodipodi.sourceforge.net/DTD/sodipodi-0.dtd"
   xmlns:inkscape="http://www.inkscape.org/namespaces/inkscape"
   version="1.1"
   id="Layer_1"
   x="0px"
   y="0px"
   width="26"
   height="26"
   viewBox="0 0 26 26"
   enable-background="new 0 0 96 100"
   xml:space="preserve"
   inkscape:version="0.48.1 "
   sodipodi:docname="rotate.svg"><metadata
   id="metadata9"><rdf:RDF><cc:Work
       rdf:about=""><dc:format>image/svg+xml</dc:format><dc:type
         rdf:resource="http://purl.org/dc/dcmitype/StillImage" /></cc:Work></rdf:RDF></metadata><defs
   id="defs7" /><sodipodi:namedview
   pagecolor="#ffffff"
   bordercolor="#666666"
   borderopacity="1"
   objecttolerance="10"
   gridtolerance="10"
   guidetolerance="10"
   inkscape:pageopacity="0"
   inkscape:pageshadow="2"
   inkscape:window-width="1920"
   inkscape:window-height="1138"
   id="namedview5"
   showgrid="false"
   inkscape:zoom="15.034677"
   inkscape:cx="16.202436"
   inkscape:cy="6.9642872"
   inkscape:window-x="1912"
   inkscape:window-y="-8"
   inkscape:window-maximized="1"
   inkscape:current-layer="Layer_1" />

<path
   style="fill:#000000"
   d="m 18.1875,5.484375 -0.96875,0.1875 -0.0625,14.34375 0,0.5 0.5,0 5.9375,0 0.75,0 -0.28125,-0.6875 -5.875,-14.34375 z m -5.9375,0.78125 0.40625,2.09375 C 11.227579,8.7540615 9.919256,9.6548801 9.03125,11.015625 8.3803808,12.012992 8.0509336,13.103806 8,14.203125 l 1.75,-0.5625 c 0.106165,-0.591171 0.33647,-1.180845 0.6875,-1.71875 0.62487,-0.957526 1.561147,-1.580621 2.5625,-1.875 l 0.375,2 1.375,-2.15625 0.9375,-1.40625 -0.46875,-0.28125 -2.96875,-1.9375 z m 5.96875,1.875 4.625,11.375 -4.6875,0 0.0625,-11.375 z m -1.53125,5.1875 -0.6875,0.28125 -14.34375,5.84375 0.1875,0.96875 14.34375,0.0625 0.5,0 0,-0.5 0,-5.90625 0,-0.75 z m -1,1.5 0,4.65625 -11.3125,-0.0625 11.3125,-4.59375 z"
   id="path3"
   inkscape:connector-curvature="0" /></svg>