<?xml version="1.0" encoding="UTF-8" standalone="no"?>
<!-- Generator: Adobe Illustrator 16.0.0, SVG Export Plug-In . SVG Version: 6.00 Build 0)  -->

<svg
   xmlns:dc="http://purl.org/dc/elements/1.1/"
   xmlns:cc="http://creativecommons.org/ns#"
   xmlns:rdf="http://www.w3.org/1999/02/22-rdf-syntax-ns#"
   xmlns:svg="http://www.w3.org/2000/svg"
   xmlns="http://www.w3.org/2000/svg"
   xmlns:sodipodi="http://sodipodi.sourceforge.net/DTD/sodipodi-0.dtd"
   xmlns:inkscape="http://www.inkscape.org/namespaces/inkscape"
   version="1.1"
   x="0px"
   y="0px"
   width="25"
   height="25"
   viewBox="0 0 24.999999 24.999999"
   xml:space="preserve"
   id="svg3076"
   inkscape:version="0.48.5 r10040"
   sodipodi:docname="selectorRect-25.svg"><metadata
   id="metadata3092"><rdf:RDF><cc:Work
       rdf:about=""><dc:format>image/svg+xml</dc:format><dc:type
         rdf:resource="http://purl.org/dc/dcmitype/StillImage" /><dc:title></dc:title></cc:Work></rdf:RDF></metadata><defs
   id="defs3090" /><sodipodi:namedview
   pagecolor="#ffffff"
   bordercolor="#666666"
   borderopacity="1"
   objecttolerance="10"
   gridtolerance="10"
   guidetolerance="10"
   inkscape:pageopacity="0"
   inkscape:pageshadow="2"
   inkscape:window-width="1920"
   inkscape:window-height="1138"
   id="namedview3088"
   showgrid="true"
   inkscape:zoom="12.470928"
   inkscape:cx="-7.1595503"
   inkscape:cy="31.241836"
   inkscape:window-x="-4"
   inkscape:window-y="-4"
   inkscape:window-maximized="1"
   inkscape:current-layer="svg3076"
   showguides="false"
   inkscape:snap-global="false"><inkscape:grid
     type="xygrid"
     id="grid3090"
     empspacing="5"
     visible="true"
     enabled="true"
     snapvisiblegridlinesonly="true" /></sodipodi:namedview>

<g
   id="Capa_1"
   transform="translate(0,-2.4430007)">
</g>
<path
   style="fill:none;stroke:#1c1c24;stroke-width:0.64190251;stroke-linecap:round;stroke-miterlimit:0.5;stroke-opacity:1;stroke-dasharray:0.64190252, 1.28380505;stroke-dashoffset:0"
   d="m 6.2503233,3.9197683 c 5.7463057,-4.38835776 9.7111597,-2.1992793 13.6732517,0 5.914664,-2.2420231 3.599678,2.0827967 0,7.4327347 -4.860924,0.859051 -12.3550982,9.179508 -13.6732517,0 -8.1410215,-0.295483 -3.8062587,-3.9349384 0,-7.4327347 z"
   id="rect3577"
   inkscape:connector-curvature="0"
   sodipodi:nodetypes="ccccc" /><path
   inkscape:connector-curvature="0"
   d="M 23.755266,18.34466 14.983809,8.3906088 C 14.84036,8.2284678 14.607256,8.1690496 14.399466,8.2415599 14.191677,8.3140702 14.052447,8.5034026 14.052447,8.7148908 V 21.854356 c 0,0.21753 0.145558,0.409884 0.361786,0.478366 l 0.165599,0.02518 c 0.163489,0 0.321704,-0.07251 0.422963,-0.203431 l 2.358463,-3.033345 1.635946,4.468444 c 0.2099,0.572025 0.865966,0.874152 1.465075,0.673741 0.599108,-0.199403 0.916594,-0.825811 0.706695,-1.398844 l -1.605359,-4.384855 3.689582,0.682805 c 0.220446,0.0423 0.441948,-0.0564 0.554808,-0.238679 0.11286,-0.184297 0.09177,-0.415927 -0.05274,-0.579075 z m -5.806502,-1.189372 c -0.199351,-0.03827 -0.402922,0.03827 -0.523165,0.194368 l -2.317327,2.980979 V 10.095607 l 6.881312,7.806939 -4.04082,-0.747258 z"
   id="path3549"
   style="fill:#214377" /></svg>