<?xml version="1.0" encoding="UTF-8" standalone="no"?>
<!-- Generator: Adobe Illustrator 16.0.0, SVG Export Plug-In . SVG Version: 6.00 Build 0)  -->

<svg
   xmlns:dc="http://purl.org/dc/elements/1.1/"
   xmlns:cc="http://creativecommons.org/ns#"
   xmlns:rdf="http://www.w3.org/1999/02/22-rdf-syntax-ns#"
   xmlns:svg="http://www.w3.org/2000/svg"
   xmlns="http://www.w3.org/2000/svg"
   xmlns:sodipodi="http://sodipodi.sourceforge.net/DTD/sodipodi-0.dtd"
   xmlns:inkscape="http://www.inkscape.org/namespaces/inkscape"
   version="1.1"
   x="0px"
   y="0px"
   width="25"
   height="25"
   viewBox="0 0 24.999999 24.999999"
   xml:space="preserve"
   id="svg3076"
   inkscape:version="0.48.5 r10040"
   sodipodi:docname="selector-25.svg"><metadata
   id="metadata3092"><rdf:RDF><cc:Work
       rdf:about=""><dc:format>image/svg+xml</dc:format><dc:type
         rdf:resource="http://purl.org/dc/dcmitype/StillImage" /><dc:title></dc:title></cc:Work></rdf:RDF></metadata><defs
   id="defs3090" /><sodipodi:namedview
   pagecolor="#ffffff"
   bordercolor="#666666"
   borderopacity="1"
   objecttolerance="10"
   gridtolerance="10"
   guidetolerance="10"
   inkscape:pageopacity="0"
   inkscape:pageshadow="2"
   inkscape:window-width="1920"
   inkscape:window-height="1138"
   id="namedview3088"
   showgrid="true"
   inkscape:zoom="17.636555"
   inkscape:cx="4.8244314"
   inkscape:cy="15.79981"
   inkscape:window-x="-4"
   inkscape:window-y="-4"
   inkscape:window-maximized="1"
   inkscape:current-layer="svg3076"
   showguides="false"
   inkscape:snap-global="false"><inkscape:grid
     type="xygrid"
     id="grid3090"
     empspacing="5"
     visible="true"
     enabled="true"
     snapvisiblegridlinesonly="true" /></sodipodi:namedview>

<g
   id="Capa_1"
   transform="translate(0,-2.4430007)">
</g>
<rect
   style="fill:none;stroke:#1c1c24;stroke-opacity:1"
   id="rect3577"
   width="6.91745"
   height="7.0875521"
   x="5.0463367"
   y="3.0002384" /><path
   inkscape:connector-curvature="0"
   d="M 19.672836,16.870449 10.901379,6.916398 C 10.75793,6.754257 10.524826,6.6948388 10.317036,6.7673491 10.109247,6.8398594 9.9700173,7.0291918 9.9700173,7.24068 v 13.139465 c 0,0.21753 0.1455577,0.409884 0.3617857,0.478366 l 0.165599,0.02518 c 0.163489,0 0.321704,-0.07251 0.422963,-0.203431 l 2.358463,-3.033345 1.635946,4.468444 c 0.2099,0.572025 0.865966,0.874152 1.465075,0.673741 0.599108,-0.199403 0.916594,-0.825811 0.706695,-1.398844 l -1.605359,-4.384855 3.689582,0.682805 c 0.220446,0.0423 0.441948,-0.0564 0.554808,-0.238679 0.11286,-0.184297 0.09177,-0.415927 -0.05274,-0.579075 z m -5.806502,-1.189372 c -0.199351,-0.03827 -0.402922,0.03827 -0.523165,0.194368 l -2.317327,2.980979 V 8.6213964 l 6.881312,7.8069386 -4.04082,-0.747258 z"
   id="path3549"
   style="fill:#214377" /></svg>