<?xml version="1.0" encoding="UTF-8" standalone="no"?>
<!-- Generator: Adobe Illustrator 15.1.0, SVG Export Plug-In . SVG Version: 6.00 Build 0)  -->

<svg
   xmlns:dc="http://purl.org/dc/elements/1.1/"
   xmlns:cc="http://creativecommons.org/ns#"
   xmlns:rdf="http://www.w3.org/1999/02/22-rdf-syntax-ns#"
   xmlns:svg="http://www.w3.org/2000/svg"
   xmlns="http://www.w3.org/2000/svg"
   xmlns:sodipodi="http://sodipodi.sourceforge.net/DTD/sodipodi-0.dtd"
   xmlns:inkscape="http://www.inkscape.org/namespaces/inkscape"
   version="1.1"
   id="Layer_1"
   x="0px"
   y="0px"
   width="26"
   height="26"
   viewBox="0 0 26 26"
   enable-background="new 0 0 96 100"
   xml:space="preserve"
   inkscape:version="0.48.1 "
   sodipodi:docname="undo.svg"><metadata
   id="metadata9"><rdf:RDF><cc:Work
       rdf:about=""><dc:format>image/svg+xml</dc:format><dc:type
         rdf:resource="http://purl.org/dc/dcmitype/StillImage" /><dc:title /></cc:Work></rdf:RDF></metadata><defs
   id="defs7" /><sodipodi:namedview
   pagecolor="#ffffff"
   bordercolor="#666666"
   borderopacity="1"
   objecttolerance="10"
   gridtolerance="10"
   guidetolerance="10"
   inkscape:pageopacity="0"
   inkscape:pageshadow="2"
   inkscape:window-width="1920"
   inkscape:window-height="1018"
   id="namedview5"
   showgrid="false"
   inkscape:zoom="17.62856"
   inkscape:cx="14.077012"
   inkscape:cy="9.0840334"
   inkscape:window-x="-8"
   inkscape:window-y="-8"
   inkscape:window-maximized="1"
   inkscape:current-layer="Layer_1" />
<path
   d="M 12.68125,5.5 C 16.989063,5.5 20.5,8.8645 20.5,13 c 0,4.1355 -3.510937,7.5 -7.81875,7.5 -2.150469,0 -4.0984376,-0.83955 -5.5125,-2.19375 L 8.725,16.825 c 1.0179688,0.9738 2.409063,1.575 3.95625,1.575 3.101719,0 5.625,-2.42235 5.625,-5.4 0,-2.97765 -2.523281,-5.4 -5.625,-5.4 C 11.249375,7.6 9.9440624,8.12005 8.95,8.96875 l 1.85625,1.78125 -3.225,0 -2.08125,0 0,-0.69375 L 5.5,5.65 7.4125,7.4875 C 8.8042185,6.2593 10.646406,5.5 12.68125,5.5 z"
   id="path3"
   inkscape:connector-curvature="0" />
</svg>